<svg width="16" height="16" xmlns="http://www.w3.org/2000/svg" xmlns:svg="http://www.w3.org/2000/svg">
	<path fill="#FFFFFF" d="m1,1l0,14l7,0l0,-7l7,0l0,-7l-14,0z"/>
	<path fill="#999999" d="m1,1l0,14l7,0l0,-1l-6,0l0,-12l12,0l0,6l1,0l0,-7l-14,0z"/>
	<path fill="#666666" d="m3,3l10,0l0,2l-10,0l0,-2z"/>
	<path fill="#B9B9B9" d="m3,6l10,0l0,1l-10,0l0,-1zm0,2l5,0l0,1l-5,0l0,-1zm0,2l5,0l0,1l-5,0l0,-1zm0,2l5,0l0,1l-5,0l0,-1z"/>
	<g>
		<path fill="#666" d="m9,9l7,0l0,7l-7,0l0,-7z"/>
		<path fill="#FFFFFF" d="m10,10l5,0l0,5l-5,0l0,-5z"/>
		<g>
			<path stroke="#000000" stroke-width="0.2" fill="#000000" d="m14.0018,10.6498l-2.60602,0c-0.17374,0 -0.31027,0.14267 -0.31027,0.31846l0,0.19108l-0.31027,0c-0.03475,0 -0.06206,0.02802 -0.06206,0.0637s0.0273,0.0637 0.06206,0.0637l0.31027,0l0,0.50955l-0.31027,0c-0.03475,0 -0.06206,0.02802 -0.06206,0.0637s0.0273,0.0637 0.06206,0.0637l0.31027,0l0,0.50955l-0.31027,0c-0.03475,0 -0.06206,0.02802 -0.06206,0.0637s0.0273,0.0637 0.06206,0.0637l0.31027,0l0,0.50955l-0.31027,0c-0.03475,0 -0.06206,0.02802 -0.06206,0.0637s0.0273,0.0637 0.06206,0.0637l0.31027,0l0,0.50955l-0.31027,0c-0.03475,0 -0.06206,0.02802 -0.06206,0.0637s0.0273,0.0637 0.06206,0.0637l0.31027,0l0,0.19108c0,0.17579 0.139,0.31846 0.31027,0.31846l2.60632,0c0.17127,0 0.31027,-0.14267 0.31027,-0.31846l0,-3.05728c0,-0.17579 -0.139,-0.31846 -0.31027,-0.31846l0,0l-0.0003,0l0,-0.00006zm-1.05494,0.12738l0.62055,0l0,0.96431l-0.27553,-0.18853c-0.02111,-0.01402 -0.0484,-0.01402 -0.06825,0l-0.27677,0.18853l0,-0.96431zm-1.73755,3.24836l0,-0.19108l0.31027,0c0.03475,0 0.06206,-0.02802 0.06206,-0.0637s-0.0273,-0.0637 -0.06206,-0.0637l-0.31027,0l0,-0.50955l0.31027,0c0.03475,0 0.06206,-0.02802 0.06206,-0.0637s-0.0273,-0.0637 -0.06206,-0.0637l-0.31027,0l0,-0.50955l0.31027,0c0.03475,0 0.06206,-0.02802 0.06206,-0.0637s-0.0273,-0.0637 -0.06206,-0.0637l-0.31027,0l0,-0.50955l0.31027,0c0.03475,0 0.06206,-0.02802 0.06206,-0.0637s-0.0273,-0.0637 -0.06206,-0.0637l-0.31027,0l0,-0.50955l0.31027,0c0.03475,0 0.06206,-0.02802 0.06206,-0.0637s-0.0273,-0.0637 -0.06206,-0.0637l-0.31027,0l0,-0.19108c0,-0.10573 0.08315,-0.19108 0.18617,-0.19108l0.43438,0l0,3.43944l-0.43438,0c-0.10177,0 -0.18617,-0.08535 -0.18617,-0.19108l0,0l0,0.00006zm2.97864,0c0,0.10573 -0.08315,0.19108 -0.18617,0.19108l-2.04782,0l0,-3.43944l0.86877,0l0,1.08279c0,0.02292 0.01241,0.04458 0.03226,0.05605s0.04468,0.01019 0.0633,-0.00255l0.33883,-0.23184l0.33759,0.23184c0.00993,0.00765 0.02233,0.01019 0.03475,0.01019c0.00993,0 0.01986,-0.00255 0.02978,-0.00765c0.01986,-0.01147 0.03226,-0.03312 0.03226,-0.05605l0,-1.08279l0.31027,0c0.10302,0 0.18617,0.08535 0.18617,0.19108l0,3.05728l0,0z"/>
		</g>
	</g>
</svg>
