<svg width="64" height="64" xmlns="http://www.w3.org/2000/svg" xmlns:svg="http://www.w3.org/2000/svg">
    <path fill="#CE403D" d="m0,0l64,0l0,64l-64,0"/>
    <g>
        <path stroke="#ffffff" stroke-width="1.25" fill="#ffffff" d="m49.14139,11.28333l-30,0c-2,0 -3.57184,1.60018 -3.57184,3.57184l0,2.1431l-3.57184,0c-0.40005,0 -0.71437,0.31432 -0.71437,0.71437s0.31432,0.71437 0.71437,0.71437l3.57184,0l0,5.71494l-3.57184,0c-0.40005,0 -0.71437,0.31432 -0.71437,0.71437s0.31432,0.71437 0.71437,0.71437l3.57184,0l0,5.71494l-3.57184,0c-0.40005,0 -0.71437,0.31432 -0.71437,0.71437s0.31432,0.71437 0.71437,0.71437l3.57184,0l0,5.71494l-3.57184,0c-0.40005,0 -0.71437,0.31432 -0.71437,0.71437s0.31432,0.71437 0.71437,0.71437l3.57184,0l0,5.71494l-3.57184,0c-0.40005,0 -0.71437,0.31432 -0.71437,0.71437s0.31432,0.71437 0.71437,0.71437l3.57184,0l0,2.1431c0,1.97165 1.60018,3.57184 3.57184,3.57184l30.00343,0c1.97165,0 3.57184,-1.60018 3.57184,-3.57184l0,-34.28963c0,-1.97165 -1.60018,-3.57184 -3.57184,-3.57184l0,-0.00003l-0.00343,0zm-12.14424,1.42873l7.14367,0l0,10.81552l-3.17179,-2.11453c-0.24288,-0.15716 -0.55721,-0.15716 -0.7858,0l-3.18608,2.11453l0,-10.81552zm-20.00229,36.43273l0,-2.1431l3.57184,0c0.40005,0 0.71437,-0.31432 0.71437,-0.71437s-0.31432,-0.71437 -0.71437,-0.71437l-3.57184,0l0,-5.71494l3.57184,0c0.40005,0 0.71437,-0.31432 0.71437,-0.71437s-0.31432,-0.71437 -0.71437,-0.71437l-3.57184,0l0,-5.71494l3.57184,0c0.40005,0 0.71437,-0.31432 0.71437,-0.71437s-0.31432,-0.71437 -0.71437,-0.71437l-3.57184,0l0,-5.71494l3.57184,0c0.40005,0 0.71437,-0.31432 0.71437,-0.71437s-0.31432,-0.71437 -0.71437,-0.71437l-3.57184,0l0,-5.71494l3.57184,0c0.40005,0 0.71437,-0.31432 0.71437,-0.71437s-0.31432,-0.71437 -0.71437,-0.71437l-3.57184,0l0,-2.1431c0,-1.18585 0.95725,-2.1431 2.1431,-2.1431l5.00057,0l0,38.57584l-5.00057,0c-1.17156,0 -2.1431,-0.95725 -2.1431,-2.1431l0,0.00002zm34.28963,0c0,1.18585 -0.95725,2.1431 -2.1431,2.1431l-23.57412,0l0,-38.57584l10.00114,0l0,12.14424c0,0.25717 0.14287,0.50006 0.37147,0.62864s0.51434,0.1143 0.72865,-0.02857l3.90045,-2.6003l3.88616,2.6003c0.1143,0.08572 0.25717,0.1143 0.40005,0.1143c0.1143,0 0.2286,-0.02857 0.3429,-0.08572c0.2286,-0.12859 0.37147,-0.37147 0.37147,-0.62864l0,-12.14424l3.57184,0c1.18585,0 2.1431,0.95725 2.1431,2.1431l0,34.28963l-0.00001,0z"/>
    </g>
</svg>
